<svg width="100%" height="100%" viewBox="0 0 1440 320" fill="#FBFAFA" xmlns="http://www.w3.org/2000/svg" preserveAspectRatio="none">

<path class="st0" d="M0,96l34.3,21.3C68.6,139,137,181,206,202.7c68.3,21.3,137,21.3,205,0c69-21.7,138-63.7,206-69.4
	c68.7-5.3,137,26.7,206,64c68.4,37.7,137,79.7,206,80c68.1-0.3,137-42.3,205-69.3c68.9-27,137-37,172-42.7l34-5.3v160h-34.3
	c-34.3,0-102.7,0-171.7,0c-68.3,0-137,0-205,0c-69,0-138,0-206,0c-68.7,0-137,0-206,0c-68.4,0-137,0-206,0c-68.1,0-137,0-205,0
	c-68.9,0-137,0-172,0H0V96z"/>
</svg>